<svg xmlns="http://www.w3.org/2000/svg" viewBox="0 0 278.33 383.86"><defs><style>.cls-1{fill:#dfdfdf;}.cls-2{fill:#97da7c;}.cls-3{fill:#c2c2c2;}.cls-4{fill:#717171;}.cls-5{fill:#707070;}.cls-6{fill:#cdcdcd;}.cls-7{fill:#81d261;}.cls-8{fill:#9d9d9d;}.cls-9{fill:#888;}</style></defs><g id="Layer_2" data-name="Layer 2"><g id="Layer_1-2" data-name="Layer 1"><path class="cls-1" d="M151.09,0C156.38,1,161.7,1.79,167,2.87A138.82,138.82,0,0,1,276.13,116.14a71.86,71.86,0,0,1,1.46,14.1,91.26,91.26,0,0,1-4.16,34.63c-12.16,39.59-36.93,68.54-73.82,87-15.2,7.6-31.41,11.7-48.39,13.16-26.38,2.27-51.51-2.22-74.92-14.38-36.3-18.85-60.58-48-72-87.57A89.76,89.76,0,0,1,.65,130.24,129,129,0,0,1,19.93,67.75c21.39-35,52.37-56.62,92.42-65.2,4.66-1,9.53-.8,14.05-2.55h2.25a1,1,0,0,0,1.49,0h3a5.74,5.74,0,0,0,4.49,0h3a5.74,5.74,0,0,0,4.49,0h3a1,1,0,0,0,1.5,0Z"/><path class="cls-2" d="M229.83,267.55q10.75,30.65,21.49,61.28,3.7,10.57,7.37,21.17c1.7,5,0,7.28-5.13,6.76q-18.94-1.9-37.86-4c-2-.22-3.7-.26-5.19,1.22l-30.25,29.89h-3.74c-2-.91-2.75-2.72-3.45-4.63-5.11-13.91-9.76-28-14.67-42-4.09-11.62-8-23.3-12.14-34.93-.65-1.84-1.6-3.7-.87-5.78,1.58-2.17,3.94-2.09,6.24-2.21,1.8-.07,3.61.2,5.37-.41,1.75-.32,3.52-.46,5.26-.88a60.67,60.67,0,0,0,8.66-1.45c1.13-.23,2.25-.53,3.37-.78a125.08,125.08,0,0,0,28.57-9.58c3.27-1.67,6.47-3.49,9.89-4.85a107.16,107.16,0,0,0,12.76-7.58C226.77,268,228,266.56,229.83,267.55Z"/><path class="cls-2" d="M98,383.86,67.73,354c-1.49-1.47-3.24-1.43-5.2-1.21q-18.91,2.1-37.86,4c-5,.51-6.82-1.74-5.21-6.4Q33.7,309.25,48,268.15a3.26,3.26,0,0,1,.41-.61c1.67-.9,2.88.2,4.08,1,21,14.21,44.15,22.33,69.16,25.52,2,.25,4,.2,6,.35s4,.24,5.28,2.21c.59,1.67,0,3.21-.58,4.73-9.18,26-18,52.2-27.25,78.19-.65,1.83-1.49,3.44-3.33,4.3Z"/><path class="cls-3" d="M137.62,0a3.39,3.39,0,0,1-4.49,0Z"/><path class="cls-3" d="M145.1,0a3.39,3.39,0,0,1-4.49,0Z"/><path class="cls-4" d="M130.14,0c-.5.87-1,1.05-1.49,0Z"/><path class="cls-5" d="M149.59,0c-.5,1.06-1,.86-1.5,0Z"/><path class="cls-6" d="M.65,130.24c-.11,20.18,5.14,39.1,13.92,57C23.06,204.6,35,219.23,49.7,231.76a134.85,134.85,0,0,0,55.42,28.62,133.75,133.75,0,0,0,41.28,4.18c24.16-1.56,46.72-8.39,67.23-21.67a139.58,139.58,0,0,0,50.48-56.6,127.11,127.11,0,0,0,12.8-43.77c.4-4.11.16-8.21.68-12.28,1.35,8.09.63,16.2-.3,24.21q-6,51.59-43.84,87.19c-3.17,3-6.51,5.77-9.76,8.64-.7,2-2.8,2.45-4.15,3.74-3.49,2.83-7.56,4.76-11.26,7.28a7.45,7.45,0,0,1-.91.53c-3.79,1.86-7.59,3.73-11.33,5.7-2.43,1.24-5,2.16-7.5,3.23-4.37,1.58-8.85,2.81-13.27,4.22-1.06.33-2.11.67-3.2.91a24.47,24.47,0,0,0-3.78.64,11.5,11.5,0,0,1-1.65.34c-2.29.33-4.52.95-6.78,1.41a31.58,31.58,0,0,1-6.63.9c-2.64.22-5.31-.35-7.92.4a158.54,158.54,0,0,1-33.81-2.65,140.47,140.47,0,0,1-54.2-23.75c-1.1-.78-2.41-1.38-2.74-2.9C47,243.59,39.39,237,32.92,229.22c-19-22.92-30-49.11-32.3-78.87C.1,143.65-.48,136.94.65,130.24Z"/><path class="cls-7" d="M172,275.11a5.26,5.26,0,0,1,2.95-.86c4.69-.85,10.26,1.09,13.51-4.3l7.43-3.15c5.16,1,8.44-.67,11.27-5.82a1.17,1.17,0,0,1,.58-.18c4.74-1,9.18-2.5,11.36-7.44a17,17,0,0,1,4.56-3.08A94.77,94.77,0,0,1,229,265.36c-4.09,2.23-7.54,5.47-11.72,7.53a8.36,8.36,0,0,0-4.13,4.49c-3.48,1-6.44,3.09-9.72,4.52-7.24,1.65-14.68,2.73-21,7.1-1.08.75-2.15.27-3.23.34a8.63,8.63,0,0,0-4.95,2.3,5,5,0,0,1-3,.75c-3.3-1.39-6.36-1.26-9,1.51-1.63,1-3.46.69-5.23.74-1.6,1.31-3.78-1.55-5.24.74-2.19,0-4.39,0-6.12,1.68l-6.6-17.94c-2.38,6.48-4.49,12.21-6.61,17.94-1.43-1.43-3.26-1.58-5.14-1.67-14.59-.72-28.61-4.1-42.3-9.07a151.42,151.42,0,0,1-34.64-17.93,11.13,11.13,0,0,0-2-.85,130.79,130.79,0,0,1,6.16-17.26C62,255,69.17,260.1,77.1,264a138.28,138.28,0,0,0,53.48,14.31c4.81.28,9.62.06,14.41.53a3.47,3.47,0,0,1,3.54.17c2,1.37,3.45.82,4.8-.86l6.73-.81c2.91,3,4.47-.84,6.69-1.34l1.49-.16C169.52,275.66,171.06,276.83,172,275.11Z"/><path class="cls-7" d="M213.17,277.38c-.16-2.37.29-3.75,3-5a22.19,22.19,0,0,0,7.78-5.13,6.42,6.42,0,0,1,5.06-1.92,3,3,0,0,1,.81,2.19Z"/><path class="cls-8" d="M29.83,140.3a89.22,89.22,0,0,1,1.9-22.47A106.23,106.23,0,0,1,60.44,63c17.57-18,38.89-29.07,64-32.32,21.49-2.78,42.13.16,61.68,9.52A107.55,107.55,0,0,1,234.1,84.76a104.73,104.73,0,0,1,14.3,50.49c0,1.68,1.31,3.37,0,5.05-1.2,7.69-2.63,15.3-5.43,22.63a114.16,114.16,0,0,1-21.28,35.8c-15.67,17.62-34.87,29.3-57.79,34.4-23.22,5.17-46,3.44-68.06-5.94a107.63,107.63,0,0,1-34.28-22.95A110.19,110.19,0,0,1,31.21,149.3C30.55,146.32,31,143.19,29.83,140.3Z"/><path class="cls-9" d="M29.83,140.3a2.42,2.42,0,0,1,.1-.36c.13-.33.6-.65.63-.25A56.36,56.36,0,0,0,32,147.74c3.89,19.38,12.69,36.19,25.84,50.91,16.05,18,35.87,29.53,59.3,34.15,22.62,4.45,44.83,2.41,66.2-7.09a106.75,106.75,0,0,0,32.52-22.06c17.54-17.58,28.38-38.77,31.72-63.59a2.07,2.07,0,0,1,.27-.56l.55.8c.34,58.78-48.9,108.93-109.48,108.78S29.45,198.8,29.83,140.3Z"/><path class="cls-7" d="M174.28,291.64c1-2.91,3.22-3.83,6-3.17.82.19,1.18.42,1.79-.36a8.55,8.55,0,0,1,6.78-3.36c3.68,0,6.37-2.68,9.92-3.08a13.91,13.91,0,0,1,4.66.23A101.69,101.69,0,0,1,174.28,291.64Z"/><path class="cls-7" d="M162.31,293.9c-.11-1.91.77-3.52,2.66-2.88,2.09.71,5.19-3.2,6.31,1.37A24.28,24.28,0,0,1,162.31,293.9Z"/><path class="cls-7" d="M151.84,295.38c.43-2,1.18-3,3.2-1.32.49.42,1.35.4,2,.58C155.49,296.05,153.58,295.11,151.84,295.38Z"/><path class="cls-7" d="M207.19,261c.56,4.86-3.61,5.31-6.49,6.85-1.72.93-3.59,1.18-4.78-1Z"/><path class="cls-7" d="M188.49,270c-.67,3.07-4.16,5.69-7.23,5.05-1.65-.34-2.91-1.07-4.44.55-.87.92-1.7-.13-1.84-1.3Z"/><path class="cls-7" d="M219.13,253.36c1.84,3.53-1.85,3.79-3.28,5.06-2.18,1.93-4.72,3.91-8.08,2.38Z"/><path class="cls-7" d="M153.33,278.17c-.76,3.17-2.59,4.09-4.73,2.06a4.76,4.76,0,0,0-3.6-1.37C147.69,277.65,150.55,278.34,153.33,278.17Z"/><path class="cls-7" d="M166.75,276a19.49,19.49,0,0,0-1.57,1.94c-1.5,2.65-3.59,2.35-5.12-.6A26.84,26.84,0,0,1,166.75,276Z"/><path class="cls-7" d="M172,275.11c-.66,3.25-2.13,2.48-3.79.75C169.35,274.85,170.73,275.18,172,275.11Z"/><path class="cls-1" d="M95,188.93c1.43-10,6.18-18.26,12.61-25.81q21.09-24.74,42-49.65c4.07-4.83,4-11.26,0-15.36-3.79-4-11.34-4.08-16.5-.16a14.52,14.52,0,0,0-6,11.16c-.53,9.5-7.07,15.58-15.64,14.54-7.93-1-13.08-8.9-11.91-17.8,2.6-20,17.08-34.92,36.91-38.22,19.22-3.2,40.1,11.78,43.08,31.15,2,13.35-1.81,24.49-10.56,34.41-7.25,8.22-14.22,16.69-21.28,25.07s-13.87,16.56-21.3,25.42h5.27c12.84,0,25.68-.09,38.51,0,5.43.05,9.9,2.15,12.3,7.44-2.27,5.06-6.5,7-11.69,7.09-8.09.16-16.17.05-24.26.05-12.32,0-24.63,0-37,0a18.56,18.56,0,0,1-8.34-1.66C98,195.05,95.55,192.78,95,188.93Z"/><path class="cls-6" d="M95,188.93c3.38,6.29,8.73,8.41,15.7,8.32,18-.23,36-.26,54,0,6.83.1,13.1-.39,17.78-6.1a13.38,13.38,0,0,1-11.36,20.13c-21.13.3-42.27.2-63.41,0-8.09-.07-13.53-6.11-13.54-14.29C94.22,194.32,94,191.56,95,188.93Z"/></g></g></svg>