<svg xmlns="http://www.w3.org/2000/svg" viewBox="0 0 278.01 382.86"><defs><style>.cls-1{fill:#fee179;}.cls-2{fill:#fd4654;}.cls-3{fill:#f6cc57;}.cls-4{fill:#fa2c3a;}.cls-5{fill:#feb957;}.cls-6{fill:#feac3e;}.cls-7{fill:#f8ce58;}</style></defs><g id="Layer_2" data-name="Layer 2"><g id="Layer_1-2" data-name="Layer 1"><path class="cls-1" d="M157,0c-.4,1.92,1.22,1.29,2,1.41q65.12,10.47,99.56,66.69a131.17,131.17,0,0,1,19.35,68.07c-.43,3.42-.68,6.87-1.33,10.25-3.07,15.9-7.72,31.23-15.71,45.51-13.54,24.18-32.34,43-56.77,55.93-26.16,13.8-54,18.9-83.54,14.8a137.23,137.23,0,0,1-88.89-49.52A136.44,136.44,0,0,1,5.08,162c-2.44-8.73-3.57-17.65-4.84-26.57A128.39,128.39,0,0,1,13.74,79c20.6-41.23,53.64-66.65,98.69-76.4,2.55-.56,5.17-.74,7.74-1.22.68-.13,2.21.44,1.7-1.34ZM29.84,138.37c-1.34,59.86,48.7,109.34,107.74,110.14,61.44.83,111.78-50.3,110.73-109.42,1.44-1.93-.06-3.85-.06-5.77,0-17.89-4.94-34.48-13.64-50A106.47,106.47,0,0,0,189,39.21a107.28,107.28,0,0,0-57.53-11.66,109.34,109.34,0,0,0-40,10.56,106.32,106.32,0,0,0-35.17,27,118.42,118.42,0,0,0-17,26.55c-4.93,10.58-7.59,21.75-9.16,33.19C29.49,129.3,29.89,133.87,29.84,138.37Z"/><path class="cls-2" d="M101.46,382.86H98.11c-9.61-9.39-19.27-18.74-28.8-28.21A8.25,8.25,0,0,0,61.72,352c-12.35,1.53-24.73,2.72-37.11,3.95-5,.5-6.81-1.76-5.2-6.4q14.18-40.85,28.42-81.66a6,6,0,0,1,.54-.95,11.13,11.13,0,0,1,2,.85,153.26,153.26,0,0,0,27.71,15.16,147.93,147.93,0,0,0,49.2,11.76c1.87.11,3.71.24,5.15,1.65a5.82,5.82,0,0,1-.15,1.11q-14.2,40.86-28.42,81.73A10.07,10.07,0,0,1,101.46,382.86Z"/><path class="cls-3" d="M.24,135.42c1.27,8.92,2.4,17.84,4.84,26.57a136.44,136.44,0,0,0,26.59,51.15,137.23,137.23,0,0,0,88.89,49.52c29.51,4.1,57.38-1,83.54-14.8,24.43-12.89,43.23-31.75,56.77-55.93,8-14.28,12.64-29.61,15.71-45.51.65-3.38.9-6.83,1.33-10.25a129.43,129.43,0,0,1-6.78,46.21,137.65,137.65,0,0,1-45.91,65.69,21.22,21.22,0,0,0-1.59,1.56c-1,.67-2.11,1.32-3.12,2a140.8,140.8,0,0,1-51.78,23.17C159,277,149,277.32,139.15,278.47H139c-1-.12-2-.31-3-.35a151.09,151.09,0,0,1-42.43-7.69c-14.13-4.89-26.95-12.21-39.09-20.81-9.36-7.84-18.25-16.15-25.68-25.92C9.58,198.37.14,169.76,0,138,0,137.14.16,136.28.24,135.42Z"/><path class="cls-4" d="M54.52,249.62c12.14,8.6,25,15.92,39.09,20.81A151.09,151.09,0,0,0,136,278.12c1,0,2,.23,3,.35q-3.27,8.94-6.53,17.88c-1.44-1.41-3.28-1.54-5.15-1.65a147.93,147.93,0,0,1-49.2-11.76A153.26,153.26,0,0,1,50.4,267.78a11.13,11.13,0,0,0-2-.85A129.49,129.49,0,0,1,54.52,249.62Z"/><path class="cls-2" d="M180,382.86h-3.35a10.63,10.63,0,0,1-2.63-4.39c-5.27-15.28-10.66-30.52-15.94-45.79-4.19-12.09-8.28-24.22-12.42-36.33a6.7,6.7,0,0,1,5.15-1.63c6.86.1,13.55-1.3,20.19-2.64a155.86,155.86,0,0,0,48.32-18.79c3.51-2.06,6.52-5,10.43-6.36q9.22,26.16,18.44,52.33,5.26,14.94,10.43,29.92c1.75,5.07-.05,7.31-5.48,6.74-12.63-1.31-25.25-2.61-37.85-4.07-2.57-.3-4.24.64-5.93,2.3Q194.74,368.54,180,382.86Z"/><path class="cls-4" d="M229.77,266.93c-3.91,1.41-6.92,4.3-10.43,6.36A155.86,155.86,0,0,1,171,292.08c-6.64,1.34-13.33,2.74-20.19,2.64a6.7,6.7,0,0,0-5.15,1.63l-6.53-17.88c9.87-1.15,19.8-1.45,29.58-3.63a140.8,140.8,0,0,0,51.78-23.17c1-.72,2.08-1.37,3.12-2A131.65,131.65,0,0,1,229.77,266.93Z"/><path class="cls-5" d="M29.84,138.37c.05-4.5-.35-9.07.25-13.5,1.57-11.44,4.23-22.61,9.16-33.19a118.42,118.42,0,0,1,17-26.55,106.32,106.32,0,0,1,35.17-27,109.34,109.34,0,0,1,40-10.56A107.28,107.28,0,0,1,189,39.21a106.47,106.47,0,0,1,45.65,44.08c8.7,15.55,13.6,32.14,13.64,50,0,1.92,1.5,3.84.06,5.77a6.52,6.52,0,0,0-.74,1.62,111.82,111.82,0,0,1-8.83,29.45,107.41,107.41,0,0,1-26.92,36.58,108.57,108.57,0,0,1-22.56,15.64,110.07,110.07,0,0,1-53.16,11.88,108.29,108.29,0,0,1-83.49-42.08,112.88,112.88,0,0,1-18-34.47C32.55,151.36,31.58,144.78,29.84,138.37ZM131.62,187c0,3.59,0,7.19,0,10.79-.07,7.63,9.53,16,18.32,12.25,7.74-3.27,11.09-10.71,8.65-22.26a24.42,24.42,0,0,0,.66-4q.06-51.33,0-102.67c0-8.06-6.09-13.7-14.11-13.74-3.48,0-7,0-10.46,0-5.36,0-9.34,2.55-12,6.89-5.27,8.56-10.22,17.31-15.41,25.92a6.11,6.11,0,0,0-1,3.84c-1.33,0-1.49,1.1-1.77,2.05a12.93,12.93,0,0,0,3.51,13.34A12.7,12.7,0,0,0,120.49,123c5.31-1.3,8.18-5.26,11.07-9.31Z"/><path class="cls-6" d="M29.84,138.37c1.74,6.41,2.71,13,4.76,19.34a112.88,112.88,0,0,0,18,34.47,108.29,108.29,0,0,0,83.49,42.08,110.07,110.07,0,0,0,53.16-11.88,108.57,108.57,0,0,0,22.56-15.64,107.41,107.41,0,0,0,26.92-36.58,111.82,111.82,0,0,0,8.83-29.45,6.52,6.52,0,0,1,.74-1.62c1.05,59.12-49.29,110.25-110.73,109.42C78.54,247.71,28.5,198.23,29.84,138.37Z"/><path class="cls-1" d="M106.16,104a6.11,6.11,0,0,1,1-3.84c5.19-8.61,10.14-17.36,15.41-25.92,2.68-4.34,6.66-6.94,12-6.89,3.49,0,7,0,10.46,0,8,0,14.08,5.68,14.11,13.74q.15,51.33,0,102.67a24.42,24.42,0,0,1-.66,4c-.49.69-1,1.37-1.46,2.09-4.17,6.72-11.15,8.63-18.32,5.31-3.7-1.72-5.09-5.19-7.16-8.18l-.06-73.25c0-2.49.08-5,0-7.47,0-1.32.66-3.14-.72-3.81-1.54-.74-2.16,1.25-3.1,2.08-1.76,1.56-3.3,3.26-5.7,4C115.64,110.65,110.69,108.12,106.16,104Z"/><path class="cls-7" d="M131.62,187c2.07,3,3.46,6.46,7.16,8.18,7.17,3.32,14.15,1.41,18.32-5.31.45-.72,1-1.4,1.46-2.09,2.44,11.55-.91,19-8.65,22.26-8.79,3.7-18.39-4.62-18.32-12.25C131.62,194.16,131.61,190.56,131.62,187Z"/><path class="cls-7" d="M106.16,104c4.53,4.16,9.48,6.69,15.89,4.6,2.4-.78,3.94-2.48,5.7-4,.94-.83,1.56-2.82,3.1-2.08,1.38.67.68,2.49.72,3.81.07,2.48,0,5,0,7.47-2.89,4-5.76,8-11.07,9.31a12.7,12.7,0,0,1-12.59-3.68A12.93,12.93,0,0,1,104.39,106C104.67,105.06,104.83,104,106.16,104Z"/></g></g></svg>