<svg xmlns="http://www.w3.org/2000/svg" viewBox="0 0 278.24 383.86"><defs><style>.cls-1{fill:#fe9738;}.cls-2{fill:#0082fc;}.cls-3{fill:#e68932;}.cls-4{fill:#804c1c;}.cls-5{fill:#6c4018;}.cls-6{fill:#fe8609;}.cls-7{fill:#0072fb;}.cls-8{fill:#cd7430;}.cls-9{fill:#bb672e;}.cls-10{fill:#fea95c;}.cls-11{fill:#e99857;}</style></defs><g id="Layer_2" data-name="Layer 2"><g id="Layer_1-2" data-name="Layer 1"><path class="cls-1" d="M152.49,0c4.62,1.79,9.6,1.8,14.38,2.8C223.32,14.52,266.17,59,276.05,116.19a78,78,0,0,1,1.5,14.85c1,11.61-.88,22.89-4.26,33.91-12.12,39.46-36.82,68.36-73.58,86.8A130.54,130.54,0,0,1,151.32,265c-39.13,3.21-73.77-7.93-103.5-33.35A135.9,135.9,0,0,1,2.05,154,76.58,76.58,0,0,1,.5,131,130.6,130.6,0,0,1,22.79,63C44.36,30.53,74.48,10.48,112.6,2.47c4.55-1,9.3-.79,13.71-2.47h2.25a1,1,0,0,0,1.49,0h3a5.74,5.74,0,0,0,4.49,0h3A5.74,5.74,0,0,0,145,0h3.74a1,1,0,0,0,1.5,0Z"/><path class="cls-2" d="M97.89,383.86,67.64,354c-1.49-1.47-3.23-1.43-5.2-1.22q-18.91,2.11-37.85,4c-4.88.49-6.81-1.71-5.32-6q14.28-41.3,28.64-82.57a2.13,2.13,0,0,1,.43-.58c1.66-1,2.87.18,4.06,1,21,14.27,44.23,22.37,69.3,25.54,2.11.27,4.21.2,6.32.32,1.88.11,3.76.27,4.8,2.23.6,2-.24,3.7-.86,5.45-9.06,25.66-17.72,51.48-26.88,77.11-.69,1.93-1.45,3.73-3.45,4.65Z"/><path class="cls-2" d="M229.71,267.58q8.86,25.16,17.72,50.32,5.56,15.87,11,31.75c1.89,5.46.23,7.68-5.38,7.1q-18.93-2-37.85-4.07c-1.85-.2-3.45-.06-4.82,1.29l-30.25,29.89h-3.74c-2-.92-2.75-2.72-3.46-4.64-5.11-13.93-9.76-28-14.69-42-4.1-11.64-8-23.34-12.15-35-.62-1.74-1.45-3.48-.94-5.44.95-2,2.83-2.25,4.72-2.36C177.27,292.83,202.2,284.05,225,269,226.41,268.08,227.7,266.54,229.71,267.58Z"/><path class="cls-3" d="M137.53,0A3.37,3.37,0,0,1,133,0Z"/><path class="cls-3" d="M145,0a3.37,3.37,0,0,1-4.49,0Z"/><path class="cls-4" d="M130.05,0c-.5.83-1,1-1.49,0Z"/><path class="cls-5" d="M150.25,0c-.5,1-1,.85-1.5,0Z"/><path class="cls-6" d="M.5,131c.13,20.72,5.62,40.14,15.08,58.34a139.13,139.13,0,0,0,54.81,57.06,135.77,135.77,0,0,0,52.66,17.32,139,139,0,0,0,120.81-47,137.13,137.13,0,0,0,32.08-67.19A108.72,108.72,0,0,0,277.55,131c1.28,7.85.55,15.72-.35,23.5q-6,51.45-43.77,87c-3.17,3-6.56,5.74-9.85,8.59-.24,1.57-1.55,2.18-2.64,3-20.35,14.61-42.94,23.42-67.85,25.82-4.36.42-8.83,1.63-13.29.4-7.34.88-14.62-.15-21.81-1.22a138.21,138.21,0,0,1-60.87-25c-1.09-.78-2.41-1.39-2.63-3-11.34-9.23-21.57-19.51-29.85-31.65C7.08,192.78-.91,164.28.08,133.2A13.62,13.62,0,0,1,.5,131Z"/><path class="cls-7" d="M54.49,250.15c12.05,8.66,24.81,15.94,38.9,20.79A143,143,0,0,0,135,278.61c1.61.06,3.21.24,4.82.36a.59.59,0,0,1-.08.87c-2-.16-1.57,1.66-1.94,2.61-1.89,4.83-3.59,9.73-5.35,14.61-1.18-1.64-2.92-1.6-4.69-1.69-17.13-.82-33.48-5-49.27-11.6a150.79,150.79,0,0,1-28.07-15.35,9.85,9.85,0,0,0-2-.84A127.84,127.84,0,0,1,54.49,250.15Z"/><path class="cls-7" d="M139.69,279.84c0-.29.06-.58.08-.87,10.76-.86,21.52-1.55,32.06-4.19a139.63,139.63,0,0,0,48.65-22.56c1-.73,2.06-1.38,3.1-2.07a131,131,0,0,1,6.13,17.43c-3.52,1.06-6.23,3.56-9.23,5.46-15.31,9.7-32,15.94-49.56,19.74-6.87,1.49-13.83,2.87-20.95,2.61-1.67-.06-3.23.17-4.31,1.67A140.21,140.21,0,0,1,139.69,279.84Z"/><path class="cls-8" d="M29.78,144c-1.45-2.71-.83-5.66-.58-8.41,1.34-14.53,4-28.73,10.25-42.12A117.68,117.68,0,0,1,54.73,69.22,105.56,105.56,0,0,1,90.4,41a107.68,107.68,0,0,1,44.41-11.12A108.48,108.48,0,0,1,235,86.52a109.63,109.63,0,0,1,13.34,45.77c.28,3.92,1.43,7.8,0,11.7-1.13-1.47,0-3.05-.29-4-4.72,51.09-51.27,96.08-109,96C79.55,236,34,188.65,30.1,140.22,30,141.11,30.62,142.6,29.78,144Z"/><path class="cls-9" d="M29.78,144v-5.92c4,27.44,15.81,50.57,36.52,69.11s45.39,28.09,73.06,27.82c60.06-.59,102.4-45.55,108.91-96.91V144a105.19,105.19,0,0,1-23.38,63.33c-17.27,21.66-39.54,35.44-67,40.05-33.44,5.63-63.61-2.45-89.49-24.2-21.68-18.21-34.48-41.83-38-70.26A89,89,0,0,1,29.78,144Z"/><path class="cls-10" d="M127.78,131.93c3-4.83,7.71-6.32,13-6.7a15.19,15.19,0,0,0,13.66-15.12c-.13-8-6.84-14.85-14.69-14.93-8.62-.08-15.23,5.69-15.72,13.72-.63,10.41-6.27,15.65-16,14.83-7.71-.66-12.88-8.38-11.64-17.49,1.76-12.82,7.56-23.23,18-31.06,15.34-11.46,39.31-9.64,53.4,3.39,14.7,13.59,18.14,35.91,8.38,53-.19.33-.28.75-.55,1-5.29,4.55-4.41,8.73-.18,13.8a25.53,25.53,0,0,1,5.41,14.1,15.8,15.8,0,0,1-1,9.46c-6.7,17.65-23,28.57-42.12,28.29-17.73-.26-34.09-12.41-40.09-29.69a8.93,8.93,0,0,1,.1-5.8c2.61-5.46,8.74-9,13.83-8,7.39,1.47,12.08,6.71,12.35,13.81.32,8.1,5,13.63,12.85,15.09,6.64,1.24,13.38-2.72,16.36-9.61,1.74-4,1.06-8-.05-12-.82-1.69-.44-3.37-.13-5.11a13.84,13.84,0,0,0-11.24-16.31c-2.2-.42-4.45-.65-6.62-1.18C130.84,138.34,127.88,135.28,127.78,131.93Z"/><path class="cls-11" d="M97.86,162.67c.38,8.46,4.72,15.16,10.21,21,15.28,16.14,39.09,18.37,56.71,5,9.1-6.92,15.59-16,16.17-28.17a37.48,37.48,0,0,1-.34,18.38c-5.11,19.85-21.86,32.52-41.74,32.5a42.33,42.33,0,0,1-41.7-35.22C96.37,171.58,95.26,167,97.86,162.67Z"/><path class="cls-11" d="M127.78,131.93c2.23,5.85,7.45,6.69,12.63,7.46C151,141,156.13,148.61,153.59,159a28.46,28.46,0,0,0-.39,2.94c-3.61-6.34-9.21-8.67-16.33-9.17C127.28,152.13,122.4,140.42,127.78,131.93Z"/></g></g></svg>