<svg xmlns="http://www.w3.org/2000/svg" viewBox="0 0 556.71 535.37"><g id="Layer_2" data-name="Layer 2"><g id="Layer_1-2" data-name="Layer 1"><path d="M346,413.3H207.5a14,14,0,0,1-12.5-7.95,15,15,0,0,1,1.54-15.9L258.42,309V231.94a10.43,10.43,0,0,1,4.18-20h28.28a10.43,10.43,0,0,1,4.18,20V309l61.88,80.44h0a15,15,0,0,1,1.53,15.9A13.93,13.93,0,0,1,346,413.3ZM262.6,222.24a.15.15,0,0,0-.15.15.15.15,0,0,0,.15.14h1a5.14,5.14,0,0,1,5.14,5.14v83.09a5.15,5.15,0,0,1-1.06,3.14l-62.95,81.82a4.83,4.83,0,0,0-.46,5.09,3.71,3.71,0,0,0,3.27,2.2H346a3.71,3.71,0,0,0,3.28-2.2,4.83,4.83,0,0,0-.46-5.09l-63-81.82a5.16,5.16,0,0,1-1.07-3.14V227.67a5.15,5.15,0,0,1,5.15-5.14h1a.14.14,0,0,0,.14-.14.15.15,0,0,0-.14-.15Z"/><path d="M242.44,358.36,213.74,394a1.88,1.88,0,0,0,1.46,3.05H336.56a1.88,1.88,0,0,0,1.51-3L311.7,358.42a1.86,1.86,0,0,0-1.51-.76H243.9A1.84,1.84,0,0,0,242.44,358.36Z"/><path d="M494.66,257.75c-10.7,21.16-18.86,42.66-23.44,66s-3.88,46.91-3.26,70.63l.1,0-.12.06a217.87,217.87,0,0,1-.6,28l-.13,0,0,0c-3.4,39.36-23.46,73.7-57.46,94.22-35.56,21.46-78.78,25.28-116.47,7a226.72,226.72,0,0,0,22.62-19.07c30.21,10.36,63.66,3.48,88.9-15.69,27.57-20.94,36.94-53,37.57-86.33l.06.05c.69-28.1-1.75-55.84,3.49-83.65,5.44-28.93,17.31-54.3,30.21-80.48A194.93,194.93,0,0,1,494.66,257.75Z"/><path d="M425.85,406.38a193.61,193.61,0,0,1-3.48,26.42c-23.22,4.77-45.14,11.84-66.21,22.8-21.24,11-39,26.3-57.27,41.54l.1.05-.13-.05a214.84,214.84,0,0,1-22.26,17l-.11-.06v0c-33.45,22.21-73.57,27.63-111.23,13.07-38.1-14.73-67.37-45.75-76.4-86a225.26,225.26,0,0,0,29,5.8c10.69,30.2,37.34,52.13,68.12,59.78,33.44,8.32,64.13-4.29,90.51-24.47v.08c22.69-17.16,43-36.58,68.39-49.91C370.58,419,397.64,412.24,425.85,406.38Z"/><path d="M263.27,471.7a192.12,192.12,0,0,1-22.82,13.73c-17.8-14.69-36.2-27.23-57.29-36.79-22.44-10.17-46-14.73-70-19.65l0,.11a.5.5,0,0,1,0-.13A217.64,217.64,0,0,1,86,422.16V422l0,0c-29.62-9.53-54.77-28.34-69.83-55.87C1.55,339.64-3.75,307.24,2.74,277.6a115.53,115.53,0,0,1,23.17-47.72,224.52,224.52,0,0,0,13.52,26.33C22,283.67,22.12,319.48,36,348.39c14.58,30.38,43.19,46,74.76,53.87l-.05,0c15.43,3.91,31.17,6.47,46.62,10.36A224.49,224.49,0,0,1,200,428.13C223.51,439.46,243.19,455.25,263.27,471.7Z"/><path d="M151.89,48.93a225.82,225.82,0,0,0-12.15,27c-32.27,3.81-59.86,25.41-74,54.32C50.88,160.68,56.45,193,70,222.77l-.07,0c11.86,26.26,26.5,50.75,33.79,78.88,7.2,27.76,7.63,55.16,7.08,83.65a191.82,191.82,0,0,1-25-9.29c.61-24.06-1.5-47.37-7.73-70.67-6.08-22.76-16.94-43.18-27.55-64l-.07.09.08-.12A214.73,214.73,0,0,1,39,215.74l.1-.09h0c-14.29-37.9-10.41-78.34,12.46-112S111,48.69,151.89,48.93Z"/><path d="M521.63,150a116,116,0,0,1-1.38,47.73,226.44,226.44,0,0,0-23.59-17.86c3.56-32-11.14-63.5-35.8-83.73C434.42,74.44,401.35,72.55,369,79.25l0-.08C340.57,84.91,313.23,93.75,284,94.48c-28.39.71-55.09-4.68-82.46-11.64a192.35,192.35,0,0,1,14.64-22.26c22.38,5.56,44.5,8.77,67.61,8.18,24.62-.63,47.81-6.73,71.56-12.6l-.07-.1a.47.47,0,0,0,.1.1,217.91,217.91,0,0,1,27.43-5.6l.07.11,0,0c32-4.43,64,2.27,89.93,22C497.45,91.38,516,119.37,521.63,150Z"/><path d="M300.26,60.66a125.64,125.64,0,0,0,24.46-4.39c-5.79-20-20.24-37-39.11-47.15-38-20.42-79.9-4.62-105.5,28.23-24.91,32-33.8,73.23-58.82,105.18-13.48,17.21-30.62,31.86-47.93,45.14q2.51,5.78,5,11.55c.94,2.21,5.28,13.12,5.37,13,2.9-2.44,14.91-11.66,17.84-14.06,5.82-4.79,11.5-9.75,17-14.93a227.46,227.46,0,0,0,29.65-33.8q3.81-5.41,7.24-11.07c22.85-37.85,40.47-120,99.1-113.36C283.44,28.31,296.8,42.62,300.26,60.66Z"/><path d="M324,97.61c-9.8,1.55-19.63,2.74-29.49,3.8-1.84,4.58-4,9-6.25,13.36-3.9,2.59-8.19,5.29-11.81,8.08a4.09,4.09,0,0,0-2,3.51C273,139.7,272.54,153.7,272,167c-.12,2.7,1.11,3.49,3,4.68a31.05,31.05,0,0,0,3.38,1.31,4.59,4.59,0,0,0,1,.39,33.87,33.87,0,0,0,3.39,1.29c2.14.44,3.74.56,5.37-1.4,8-9.69,16.11-20,24.64-29.28a3.88,3.88,0,0,0,1.19-3.67c-.43-5.31-1.3-10.94-1.29-16.37l-.32-.17A92.24,92.24,0,0,0,324,97.61Z"/><path d="M551.83,275.33c-8.82-25.46-27.28-47.25-48.11-63.91-21.55-17.23-47.33-28.79-67.5-47.78-20.87-19.65-33.48-45.87-47-70.68,8.11,27.81,17.48,56.34,36.08,79.1,16.37,20,38.55,33.77,58.09,50.34,18.62,15.77,36.11,36.16,43.53,59.79,6.59,21,2.09,39.63-8.36,58.56-7.83,14.19-17.83,28.36-29.77,40,1.55,8.42,2.12,23.08,1.29,32.53,23.86-15.13,43-39.9,55.38-64.89C557.14,324.9,560.51,300.42,551.83,275.33Z"/><path d="M280.57,199.59c.29,2-1.72,3.83-3.83,3.83s-4.13-2-3.83-3.83c.46-3.3,3.07-4.49,4-10.73C277.72,194.91,280.12,196.35,280.57,199.59Z"/></g></g></svg>