<svg xmlns="http://www.w3.org/2000/svg" viewBox="0 0 658.71 631.71"><defs><style>.cls-1{fill:#fff;}</style></defs><g id="Layer_2" data-name="Layer 2"><g id="Layer_1-2" data-name="Layer 1"><path class="cls-1" d="M26,629.2a2,2,0,0,1-2.25,2.3,2,2,0,0,1-2.26-2.3V617.14H4.53V629.2a2,2,0,0,1-2.23,2.3A2,2,0,0,1,0,629.2V601.67a2,2,0,0,1,2.26-2.3,2,2,0,0,1,2.27,2.3v11.21H21.45V601.67a2,2,0,0,1,2.26-2.3,2,2,0,0,1,2.25,2.3Z"/><path class="cls-1" d="M62.94,626.9a15.2,15.2,0,0,1-11.56,4.81,15.16,15.16,0,0,1-11.55-4.81,17.2,17.2,0,0,1,0-22.93,15.19,15.19,0,0,1,11.55-4.81A15.23,15.23,0,0,1,62.94,604a17.22,17.22,0,0,1,0,22.93Zm-3.11-20a10.64,10.64,0,0,0-8.45-3.66,10.64,10.64,0,0,0-8.45,3.66,13.74,13.74,0,0,0,0,17,10.64,10.64,0,0,0,8.45,3.66,10.64,10.64,0,0,0,8.45-3.66,13.63,13.63,0,0,0,0-17Z"/><path class="cls-1" d="M101.86,628.44a2.6,2.6,0,0,1,.23.94A1.87,1.87,0,0,1,100,631.5a2.06,2.06,0,0,1-2-1.31l-3.15-6.88H80l-3.16,6.88a2,2,0,0,1-2,1.31,1.87,1.87,0,0,1-2.12-2.12,2.6,2.6,0,0,1,.23-.94l12.45-27.76a2,2,0,0,1,2-1.31,2,2,0,0,1,2,1.31ZM87.38,606,81.62,619.3H93.13ZM86,593.8l2.31-2.74a2,2,0,0,1,1.54-.76c1.16,0,1.75.63,1.75,1.89a2,2,0,0,1-.56,1.24L88.78,596a2.16,2.16,0,0,1-1.68.81,1.57,1.57,0,0,1-1.75-1.8A2.07,2.07,0,0,1,86,593.8Z"/><path class="cls-1" d="M149.69,629.13c-2.16,1.72-5.15,2.58-8.95,2.58a17.63,17.63,0,0,1-11.14-3.5,2.76,2.76,0,0,1-1.22-2.12c0-1.22.64-1.84,1.93-1.84a3.43,3.43,0,0,1,1.61.58,23.92,23.92,0,0,0,3.94,2.07,13.86,13.86,0,0,0,4.92.85q7.44,0,7.44-4.72a3.88,3.88,0,0,0-2.1-3.47,14.32,14.32,0,0,0-2.62-1.2c-.82-.29-2.05-.68-3.71-1.17q-6.19-1.85-8.68-4.06a7,7,0,0,1-2.37-5.47,7.18,7.18,0,0,1,3.39-6.36c2.13-1.42,5-2.14,8.7-2.14a20,20,0,0,1,7.11,1.34,10.1,10.1,0,0,1,2.51,1.29,2.49,2.49,0,0,1,1.31,1.91c0,1.35-.64,2-1.93,2a1.68,1.68,0,0,1-.9-.23,19.37,19.37,0,0,0-3.73-1.65,15,15,0,0,0-4.33-.65q-7.59,0-7.59,4.37a3.55,3.55,0,0,0,1.84,3.13A27.74,27.74,0,0,0,141,613q3.13,1,5,1.75a19.48,19.48,0,0,1,3.68,2,7.14,7.14,0,0,1,3,6A7.68,7.68,0,0,1,149.69,629.13Z"/><path class="cls-1" d="M166.72,629.2a2,2,0,0,1-2.24,2.3,2,2,0,0,1-2.3-2.3V601.67a2,2,0,0,1,2.3-2.3,2,2,0,0,1,2.24,2.3Z"/><path class="cls-1" d="M204.3,629.38c0,1.42-.73,2.12-2.19,2.12a2.08,2.08,0,0,1-1.68-.78l-18.07-23v21.68a2.14,2.14,0,0,1-4.28,0V601.53a1.93,1.93,0,0,1,2.21-2.16,2,2,0,0,1,1.7.9l18,22.9V601.53a1.92,1.92,0,0,1,2.19-2.16,1.89,1.89,0,0,1,2.12,2.16Z"/><path class="cls-1" d="M241.51,629.2a2.26,2.26,0,1,1-4.51,0V617.14H220.09V629.2a2,2,0,0,1-2.24,2.3,2,2,0,0,1-2.3-2.3V601.67a2.27,2.27,0,1,1,4.54,0v11.21H237V601.67a2.26,2.26,0,1,1,4.51,0Z"/><path class="cls-1" d="M297.13,604.37a2.47,2.47,0,0,1,.62,1.58,1.77,1.77,0,0,1-2,2,2.54,2.54,0,0,1-2-1.08,10.56,10.56,0,0,0-8.2-3.57,11,11,0,0,0-8.7,3.59,13.91,13.91,0,0,0,0,17.13,11,11,0,0,0,8.7,3.59,10.56,10.56,0,0,0,8.2-3.57,2.54,2.54,0,0,1,2-1.08,1.77,1.77,0,0,1,2,2,2.52,2.52,0,0,1-.62,1.59q-4.1,5.21-11.88,5.2a15.1,15.1,0,0,1-11.64-4.83,17.4,17.4,0,0,1,0-22.88,15.07,15.07,0,0,1,11.64-4.84Q293,599.16,297.13,604.37Z"/><path class="cls-1" d="M333,629.2a2.26,2.26,0,1,1-4.51,0V617.14H311.59V629.2a2,2,0,0,1-2.23,2.3,2,2,0,0,1-2.3-2.3V601.67a2.27,2.27,0,1,1,4.53,0v11.21h16.92V601.67a2.26,2.26,0,1,1,4.51,0Z"/><path class="cls-1" d="M370.46,628.44a2.41,2.41,0,0,1,.23.94,1.87,1.87,0,0,1-2.12,2.12,2,2,0,0,1-2-1.31l-3.15-6.88H348.57l-3.15,6.88a2,2,0,0,1-2,1.31,1.87,1.87,0,0,1-2.11-2.12,2.41,2.41,0,0,1,.23-.94L354,600.68a2.22,2.22,0,0,1,4.05,0ZM356,606l-5.75,13.35h11.51Z"/><path class="cls-1" d="M406.93,600.73a2.15,2.15,0,0,1,2-1.36,1.88,1.88,0,0,1,2.12,2.12v27.85A1.89,1.89,0,0,1,409,631.5a1.92,1.92,0,0,1-2.19-2.16V610.26L397,630.19a2.15,2.15,0,0,1-4,0l-9.81-19.93v19.08a2.14,2.14,0,1,1-4.28,0V601.49a1.88,1.88,0,0,1,2.12-2.12,2.15,2.15,0,0,1,2,1.36L395,625.2Z"/><path class="cls-1" d="M426.87,629.2a2,2,0,0,1-2.23,2.3,2,2,0,0,1-2.31-2.3V602a2,2,0,0,1,2.31-2.3h12q5.19,0,8,2.62a8.8,8.8,0,0,1,2.65,6.72,8.57,8.57,0,0,1-2.65,6.63q-2.84,2.56-8,2.56h-9.76Zm0-25.32v10.24H437.5q5.29,0,5.3-5a5,5,0,0,0-5.3-5.2Z"/><path class="cls-1" d="M460,629.2a2,2,0,0,1-2.23,2.3,2,2,0,0,1-2.3-2.3V601.67a2,2,0,0,1,2.3-2.3,2,2,0,0,1,2.23,2.3Z"/><path class="cls-1" d="M497,626.9a16.28,16.28,0,0,1-23.11,0,17.22,17.22,0,0,1,0-22.93A16.28,16.28,0,0,1,497,604a17.22,17.22,0,0,1,0,22.93Zm-3.11-20a11.57,11.57,0,0,0-16.89,0,13.71,13.71,0,0,0,0,17,11.57,11.57,0,0,0,16.89,0,13.63,13.63,0,0,0,0-17Z"/><path class="cls-1" d="M537.1,629.38c0,1.42-.73,2.12-2.19,2.12a2.08,2.08,0,0,1-1.68-.78l-18.07-23v21.68a2.14,2.14,0,0,1-4.28,0V601.53a1.93,1.93,0,0,1,2.21-2.16,2,2,0,0,1,1.7.9l18,22.9V601.53a1.92,1.92,0,0,1,2.19-2.16,1.89,1.89,0,0,1,2.12,2.16Z"/><path class="cls-1" d="M568.11,629.13c-2.17,1.72-5.15,2.58-9,2.58a17.65,17.65,0,0,1-11.14-3.5,2.79,2.79,0,0,1-1.22-2.12c0-1.22.65-1.84,1.94-1.84a3.43,3.43,0,0,1,1.61.58,23.88,23.88,0,0,0,3.93,2.07,13.91,13.91,0,0,0,4.93.85q7.42,0,7.43-4.72a3.89,3.89,0,0,0-2.09-3.47,14.45,14.45,0,0,0-2.63-1.2c-.81-.29-2-.68-3.7-1.17q-6.19-1.85-8.68-4.06a7,7,0,0,1-2.37-5.47,7.19,7.19,0,0,1,3.38-6.36c2.14-1.42,5-2.14,8.7-2.14a20,20,0,0,1,7.12,1.34,10.28,10.28,0,0,1,2.51,1.29,2.49,2.49,0,0,1,1.31,1.91c0,1.35-.65,2-1.94,2a1.67,1.67,0,0,1-.89-.23,19.65,19.65,0,0,0-3.73-1.65,15,15,0,0,0-4.33-.65q-7.59,0-7.59,4.37a3.55,3.55,0,0,0,1.84,3.13,27.51,27.51,0,0,0,5.89,2.35q3.14,1,5,1.75a19.8,19.8,0,0,1,3.68,2,7.17,7.17,0,0,1,3,6A7.68,7.68,0,0,1,568.11,629.13Z"/><path class="cls-1" d="M606.46,629.2a2.26,2.26,0,1,1-4.51,0V617.14H585V629.2a2,2,0,0,1-2.24,2.3,2,2,0,0,1-2.3-2.3V601.67a2.27,2.27,0,1,1,4.54,0v11.21H602V601.67a2.26,2.26,0,1,1,4.51,0Z"/><path class="cls-1" d="M622.38,629.2a2,2,0,0,1-2.24,2.3,2,2,0,0,1-2.3-2.3V601.67a2,2,0,0,1,2.3-2.3,2,2,0,0,1,2.24,2.3Z"/><path class="cls-1" d="M638.27,629.2a2,2,0,0,1-2.23,2.3,2,2,0,0,1-2.3-2.3V602a2,2,0,0,1,2.3-2.3h12q5.21,0,8,2.62a8.8,8.8,0,0,1,2.64,6.72,8.57,8.57,0,0,1-2.64,6.63q-2.84,2.56-8,2.56h-9.76Zm0-25.32v10.24h10.64q5.3,0,5.29-5a5,5,0,0,0-5.29-5.2Z"/><path class="cls-1" d="M397,413.3H258.5a14,14,0,0,1-12.5-7.95,15,15,0,0,1,1.54-15.9L309.42,309V231.94a10.43,10.43,0,0,1,4.18-20h28.28a10.43,10.43,0,0,1,4.18,20V309l61.88,80.44h0a15,15,0,0,1,1.53,15.9A13.93,13.93,0,0,1,397,413.3ZM313.6,222.24a.15.15,0,0,0-.15.15.15.15,0,0,0,.15.14h1a5.14,5.14,0,0,1,5.14,5.14v83.09a5.15,5.15,0,0,1-1.06,3.14l-62.95,81.82a4.83,4.83,0,0,0-.46,5.09,3.71,3.71,0,0,0,3.27,2.2H397a3.68,3.68,0,0,0,3.27-2.2,4.81,4.81,0,0,0-.45-5.09l-63-81.82a5.16,5.16,0,0,1-1.07-3.14V227.67a5.14,5.14,0,0,1,5.14-5.14h1a.14.14,0,0,0,.14-.14.15.15,0,0,0-.14-.15Z"/><path class="cls-1" d="M293.44,358.36,264.74,394a1.88,1.88,0,0,0,1.46,3.05H387.56a1.88,1.88,0,0,0,1.51-3L362.7,358.42a1.86,1.86,0,0,0-1.51-.76H294.9A1.84,1.84,0,0,0,293.44,358.36Z"/><path class="cls-1" d="M545.66,257.75c-10.7,21.16-18.86,42.66-23.44,66s-3.88,46.91-3.26,70.63l.1,0-.12.06a217.87,217.87,0,0,1-.6,28l-.13,0,0,0c-3.4,39.36-23.46,73.7-57.46,94.22-35.56,21.46-78.78,25.28-116.47,7a226.72,226.72,0,0,0,22.62-19.07c30.21,10.36,63.66,3.48,88.9-15.69,27.57-20.94,36.94-53,37.57-86.33l.06.05c.68-28.1-1.75-55.84,3.49-83.65,5.44-28.93,17.31-54.3,30.21-80.48A194.93,194.93,0,0,1,545.66,257.75Z"/><path class="cls-1" d="M476.85,406.38a193.61,193.61,0,0,1-3.48,26.42c-23.22,4.77-45.14,11.84-66.21,22.8-21.24,11-39,26.3-57.27,41.54l.1.05-.13-.05a214.84,214.84,0,0,1-22.26,17l-.11-.06v0c-33.44,22.21-73.56,27.63-111.22,13.07-38.1-14.73-67.37-45.75-76.4-86a225.26,225.26,0,0,0,29,5.8c10.69,30.2,37.34,52.13,68.12,59.78,33.44,8.32,64.13-4.29,90.51-24.47v.08c22.69-17.16,43-36.58,68.39-49.91C421.58,419,448.64,412.24,476.85,406.38Z"/><path class="cls-1" d="M314.27,471.7a192.12,192.12,0,0,1-22.82,13.73c-17.8-14.69-36.2-27.23-57.29-36.79-22.45-10.17-46-14.73-70-19.65l0,.11a.5.5,0,0,1,0-.13A217.64,217.64,0,0,1,137,422.16V422l0,0c-29.62-9.53-54.77-28.34-69.83-55.87-14.52-26.55-19.82-58.95-13.33-88.59a115.53,115.53,0,0,1,23.17-47.72,224.52,224.52,0,0,0,13.52,26.33C73,283.67,73.12,319.48,87,348.39c14.58,30.38,43.19,46,74.76,53.87l0,0c15.43,3.91,31.17,6.47,46.62,10.36A224.74,224.74,0,0,1,251,428.13C274.51,439.46,294.19,455.25,314.27,471.7Z"/><path class="cls-1" d="M202.89,48.93a225.82,225.82,0,0,0-12.15,27c-32.27,3.81-59.86,25.41-74,54.32-14.88,30.44-9.3,62.78,4.27,92.53l-.07,0c11.86,26.26,26.5,50.75,33.79,78.88,7.2,27.76,7.63,55.16,7.08,83.65a191.82,191.82,0,0,1-25-9.29c.61-24.06-1.5-47.37-7.73-70.67-6.08-22.76-16.94-43.18-27.55-64l-.07.09.08-.12A214.73,214.73,0,0,1,90,215.74l.1-.09h0c-14.29-37.9-10.41-78.34,12.46-112S162,48.69,202.89,48.93Z"/><path class="cls-1" d="M572.63,150a116,116,0,0,1-1.38,47.73,226.44,226.44,0,0,0-23.59-17.86c3.56-32-11.14-63.5-35.8-83.73C485.42,74.44,452.35,72.55,420,79.25l0-.08C391.57,84.91,364.23,93.75,335,94.48c-28.39.71-55.09-4.68-82.46-11.64a192.35,192.35,0,0,1,14.64-22.26c22.38,5.56,44.5,8.77,67.61,8.18,24.62-.63,47.81-6.73,71.56-12.6l-.07-.1a.47.47,0,0,0,.1.1,217.91,217.91,0,0,1,27.43-5.6l.07.11,0,0c32-4.43,64,2.27,89.93,22C548.45,91.38,567,119.37,572.63,150Z"/><path class="cls-1" d="M351.26,60.66a125.64,125.64,0,0,0,24.46-4.39c-5.79-20-20.24-37-39.11-47.15-38-20.42-79.9-4.62-105.5,28.23-24.91,32-33.8,73.23-58.82,105.18-13.48,17.21-30.62,31.86-47.93,45.14q2.51,5.78,5,11.55c.94,2.21,5.28,13.12,5.37,13,2.9-2.44,14.91-11.66,17.84-14.06,5.82-4.79,11.5-9.75,17-14.93a227.46,227.46,0,0,0,29.65-33.8q3.81-5.41,7.24-11.07c22.85-37.85,40.47-120,99.1-113.36C334.44,28.31,347.8,42.62,351.26,60.66Z"/><path class="cls-1" d="M375,97.61c-9.8,1.55-19.63,2.74-29.49,3.8-1.84,4.58-4,9-6.25,13.36-3.9,2.59-8.19,5.29-11.81,8.08a4.09,4.09,0,0,0-2,3.51C324,139.7,323.54,153.7,323,167c-.12,2.7,1.11,3.49,3,4.68a31.05,31.05,0,0,0,3.38,1.31,4.59,4.59,0,0,0,1,.39,33.87,33.87,0,0,0,3.39,1.29c2.14.44,3.74.56,5.37-1.4,8-9.69,16.11-20,24.64-29.28a3.88,3.88,0,0,0,1.19-3.67c-.43-5.31-1.3-10.94-1.29-16.37l-.32-.17A92.24,92.24,0,0,0,375,97.61Z"/><path class="cls-1" d="M602.83,275.33c-8.82-25.46-27.28-47.25-48.11-63.91-21.55-17.23-47.33-28.79-67.5-47.78-20.87-19.65-33.48-45.87-47-70.68,8.11,27.81,17.48,56.34,36.08,79.1,16.37,20,38.55,33.77,58.09,50.34,18.62,15.77,36.11,36.16,43.53,59.79,6.59,21,2.09,39.63-8.36,58.56-7.83,14.19-17.83,28.36-29.77,40,1.55,8.42,2.12,23.08,1.29,32.53,23.86-15.13,43-39.9,55.38-64.89C608.14,324.9,611.51,300.42,602.83,275.33Z"/><path class="cls-1" d="M331.57,199.59c.29,2-1.72,3.83-3.83,3.83s-4.13-2-3.83-3.83c.46-3.3,3.07-4.49,4-10.73C328.72,194.91,331.12,196.35,331.57,199.59Z"/></g></g></svg>